<svg width="53" height="53" viewBox="0 0 53 53" fill="none" xmlns="http://www.w3.org/2000/svg">
<g clip-path="url(#clip0_1183_262)">
<circle cx="26.5" cy="26.5" r="26.5" fill="#D9D9D9"/>
<path d="M40.1896 13.694C37.7298 12.5431 35.0997 11.7067 32.3499 11.2305C32.0122 11.841 31.6177 12.6622 31.3457 13.3155C28.4226 12.8759 25.5265 12.8759 22.6572 13.3155C22.3852 12.6622 21.9817 11.841 21.641 11.2305C18.8883 11.7067 16.2551 12.5462 13.7953 13.7001C8.83385 21.1975 7.48888 28.5087 8.16137 35.7161C11.4521 38.1735 14.6411 39.6663 17.7764 40.6431C18.5505 39.5777 19.2409 38.4452 19.8357 37.2516C18.7029 36.8212 17.618 36.29 16.5929 35.6734C16.8648 35.4719 17.1309 35.2612 17.3879 35.0445C23.6405 37.969 30.4341 37.969 36.612 35.0445C36.872 35.2612 37.138 35.4719 37.407 35.6734C36.3788 36.293 35.2909 36.8242 34.1582 37.2547C34.7529 38.4452 35.4404 39.5808 36.2175 40.6462C39.3558 39.6693 42.5478 38.1766 45.8385 35.7161C46.6276 27.3609 44.4906 20.1169 40.1896 13.694ZM20.6875 31.2836C18.8106 31.2836 17.2713 29.5313 17.2713 27.3975C17.2713 25.2637 18.7777 23.5084 20.6875 23.5084C22.5974 23.5084 24.1366 25.2606 24.1038 27.3975C24.1067 29.5313 22.5974 31.2836 20.6875 31.2836ZM33.3123 31.2836C31.4354 31.2836 29.8961 29.5313 29.8961 27.3975C29.8961 25.2637 31.4024 23.5084 33.3123 23.5084C35.2222 23.5084 36.7614 25.2606 36.7286 27.3975C36.7286 29.5313 35.2222 31.2836 33.3123 31.2836Z" fill="#FFA800"/>
</g>
<defs>
<clipPath id="clip0_1183_262">
<rect width="53" height="53" fill="white"/>
</clipPath>
</defs>
</svg>
