<svg width="24" height="24" viewBox="0 0 24 24" fill="none" xmlns="http://www.w3.org/2000/svg">
<path fill-rule="evenodd" clip-rule="evenodd" d="M4.28033 4.21967C4.57322 3.92678 5.0481 3.92678 5.34099 4.21967L15.0801 13.9588L15.1207 13.9965C15.1428 14.017 15.1635 14.0387 15.1827 14.0614L19.8367 18.7154C20.1296 19.0083 20.1296 19.4831 19.8367 19.776C19.5438 20.0689 19.0689 20.0689 18.776 19.776L16.8227 17.8227C15.3545 18.7769 13.6264 19.5 11.75 19.5C8.68603 19.5 6.00305 17.5738 4.15756 15.7891C3.21994 14.8824 2.46362 13.9783 1.94192 13.3017C1.68059 12.9628 1.47691 12.6794 1.33757 12.4792C1.26787 12.3791 1.21419 12.2996 1.17737 12.2443C1.15895 12.2166 1.14474 12.195 1.13485 12.1798L1.12324 12.162L1.11989 12.1568L1.11883 12.1551L1.11845 12.1545C1.11831 12.1543 1.11818 12.1541 1.75 11.75C1.11818 11.3459 1.11826 11.3458 1.11835 11.3456L1.11856 11.3453L1.11912 11.3444L1.12077 11.3419L1.1262 11.3334L1.14551 11.3039C1.1621 11.2786 1.1861 11.2424 1.21728 11.1962C1.27961 11.1038 1.3707 10.9715 1.48864 10.8071C1.72436 10.4784 2.06822 10.0203 2.505 9.49593C3.25077 8.60061 4.27976 7.4973 5.51579 6.51579L4.28033 5.28033C3.98744 4.98744 3.98744 4.51256 4.28033 4.21967ZM6.51596 7.63728C5.35853 8.54562 4.37817 9.59083 3.65753 10.456C3.24752 10.9482 2.92574 11.3771 2.70753 11.6813C2.69055 11.705 2.67421 11.7279 2.65851 11.75C2.77911 11.9198 2.93729 12.1361 3.12978 12.3858C3.62013 13.0217 4.32828 13.8676 5.2003 14.7109C6.9741 16.4262 9.29112 18 11.75 18C13.1129 18 14.4373 17.517 15.6599 16.7812L14.5011 15.6225C13.7251 16.1746 12.7751 16.5 11.75 16.5C9.12665 16.5 7 14.3733 7 11.75C7 10.7251 7.32525 9.77497 7.87747 8.99879L6.51596 7.63728ZM8.87108 10.2401C8.63395 10.6911 8.5 11.2045 8.5 11.75C8.5 13.5449 9.95507 15 11.75 15C12.3602 15 12.9307 14.8322 13.4184 14.5398L12.3398 13.4611L8.87108 10.2401ZM1.75 11.75L1.11818 11.3459C0.960607 11.5923 0.960607 11.9077 1.11818 12.1541L1.75 11.75ZM11.75 5.5C11.0199 5.5 10.3009 5.63825 9.60028 5.88119C9.20893 6.0169 8.78166 5.80965 8.64596 5.4183C8.51025 5.02695 8.71749 4.59968 9.10884 4.46398C9.94318 4.17466 10.8287 4 11.75 4C14.814 4 17.4969 5.92619 19.3424 7.71086C20.2801 8.61758 21.0364 9.52169 21.5581 10.1983C21.8194 10.5372 22.0231 10.8206 22.1624 11.0208C22.2321 11.1209 22.2858 11.2004 22.3226 11.2557C22.341 11.2834 22.3553 11.305 22.3652 11.3202L22.3768 11.338L22.3801 11.3432L22.3812 11.3449L22.3815 11.3455C22.3817 11.3457 22.3818 11.3459 21.75 11.75C22.3818 12.1541 22.3818 12.1542 22.3817 12.1543L22.3816 12.1545L22.3812 12.155L22.3803 12.1565L22.3772 12.1612L22.3668 12.1773C22.358 12.1909 22.3453 12.2102 22.3289 12.2349C22.296 12.2844 22.2481 12.3555 22.186 12.4452C22.0617 12.6248 21.8801 12.8795 21.6466 13.1862C21.1803 13.7989 20.5036 14.6241 19.6611 15.4743C19.3696 15.7685 18.8947 15.7707 18.6005 15.4791C18.3062 15.1876 18.3041 14.7127 18.5956 14.4185C19.3813 13.6255 20.0155 12.8526 20.453 12.2778C20.6085 12.0735 20.7387 11.8948 20.8415 11.75C20.7209 11.5802 20.5627 11.3639 20.3702 11.1142C19.8799 10.4783 19.1717 9.63242 18.2997 8.78914C16.5259 7.07381 14.2089 5.5 11.75 5.5ZM21.75 11.75L22.3818 12.1541C22.5394 11.9077 22.5394 11.5923 22.3818 11.3459L21.75 11.75Z" fill="black"/>
</svg>
