<svg width="53" height="53" viewBox="0 0 53 53" fill="none" xmlns="http://www.w3.org/2000/svg">
<g clip-path="url(#clip0_1183_287)">
<circle cx="26.5" cy="26.5" r="26.5" fill="#D9D9D9"/>
<g clip-path="url(#clip1_1183_287)">
<path fill-rule="evenodd" clip-rule="evenodd" d="M23.3792 31.6549V21.5536C26.9652 23.241 29.7425 24.8711 33.0272 26.6284C30.318 28.1309 26.9652 29.8168 23.3792 31.6549ZM43.3638 16.5298C42.7452 15.7148 41.691 15.0805 40.5686 14.8704C37.2695 14.2439 16.6878 14.2422 13.3905 14.8704C12.4904 15.0392 11.6889 15.447 11.0004 16.0807C8.09935 18.7733 9.0084 33.213 9.70766 35.552C10.0017 36.5644 10.3818 37.2946 10.8606 37.7739C11.4774 38.4075 12.3218 38.8438 13.2918 39.0395C16.0082 39.6014 30.0025 39.9155 40.5112 39.1239C41.4794 38.9551 42.3364 38.5048 43.0124 37.8442C45.6947 35.1623 45.5118 19.9117 43.3638 16.5298Z" fill="#FFA800"/>
</g>
</g>
<defs>
<clipPath id="clip0_1183_287">
<rect width="53" height="53" fill="white"/>
</clipPath>
<clipPath id="clip1_1183_287">
<rect width="36" height="36" fill="white" transform="translate(9 9)"/>
</clipPath>
</defs>
</svg>
